<svg width="104" height="100" viewBox="0 0 104 100" fill="none" xmlns="http://www.w3.org/2000/svg">
<circle cx="51.9405" cy="50.1925" r="41.1352" fill="#74A91F"/>
<circle cx="51.563" cy="49.8151" r="48.0672" stroke="#74A91F" stroke-width="3.4958"/>
<path d="M7.71534 41.2479H6.45903V44.5525C7.80637 44.8529 8.65301 45.2171 8.99895 45.6449L8.71218 47.9664H1.16071L0.887605 45.6449C1.1334 45.3263 1.64776 45.0168 2.43067 44.7164V31.9349C1.65686 31.6617 1.14251 31.3477 0.887605 30.9926L1.16071 28.6712H8.57563C10.3053 28.6894 11.7391 28.8988 12.8771 29.2994C14.0242 29.6908 14.8799 30.3372 15.4443 31.2384C16.0088 32.1397 16.291 33.3641 16.291 34.9117C16.291 39.1358 13.4324 41.2479 7.71534 41.2479ZM8.125 31.7164H6.45903V38.2027H8.32983C9.59524 38.2027 10.5375 37.9524 11.1565 37.4517C11.7847 36.9419 12.0987 36.0679 12.0987 34.8298C12.0987 33.5826 11.7574 32.7542 11.0746 32.3445C10.4009 31.9258 9.41772 31.7164 8.125 31.7164ZM17.3424 30.2689L17.6155 28.1113C18.6716 27.8655 19.6457 27.7426 20.5378 27.7426C21.43 27.7426 22.181 27.7699 22.791 27.8246V44.8666C23.5193 45.1397 24.0336 45.4538 24.334 45.8088L24.0609 47.9664H17.6155L17.3424 45.8088C17.5973 45.4538 18.1117 45.1397 18.8855 44.8666V31.2111C18.2209 30.9926 17.7066 30.6786 17.3424 30.2689ZM26.0546 36.0588C26.0546 35.9131 26.0546 35.7675 26.0546 35.6218C26.0637 35.4671 26.0728 35.3123 26.0819 35.1575C27.8207 34.229 29.687 33.7647 31.6807 33.7647C33.6744 33.7647 35.1036 34.1425 35.9685 34.8981C36.8333 35.6537 37.2658 36.9054 37.2658 38.6533V44.6071C37.9121 44.7437 38.4265 44.903 38.8088 45.0851V47.5157C37.8803 47.9618 36.5193 48.1849 34.7258 48.1849C34.5347 47.6842 34.3754 47.097 34.2479 46.4233C33.4468 47.5977 31.9947 48.1849 29.8918 48.1849C29.0634 48.1849 28.3032 48.021 27.6113 47.6933C26.9286 47.3655 26.3824 46.9012 25.9727 46.3004C25.563 45.6905 25.3582 44.9667 25.3582 44.1292C25.3582 42.882 25.7724 41.9033 26.6008 41.1933C27.4293 40.4741 28.6628 40.1145 30.3015 40.1145H33.3603V38.7626C33.3603 37.306 32.5865 36.5777 31.0389 36.5777C30.438 36.5777 29.9601 36.6369 29.605 36.7552C29.5595 37.5473 29.4503 38.1526 29.2773 38.5714H26.5326C26.2139 37.9068 26.0546 37.0693 26.0546 36.0588ZM31.0935 45.3309C32.0494 45.3309 32.805 45.0532 33.3603 44.4979V42.2038H31.3939C30.0557 42.2038 29.3866 42.7181 29.3866 43.7468C29.3866 44.2111 29.5277 44.5935 29.8099 44.8939C30.1012 45.1852 30.5291 45.3309 31.0935 45.3309ZM42.8508 30.4601H44.8855V33.9832H48.8866V36.3319H44.8855V43.4054C44.8855 44.0154 44.972 44.4478 45.145 44.7027C45.2724 44.903 45.5091 45.0304 45.855 45.0851C46.2101 45.1306 46.6152 45.1169 47.0704 45.0441C47.5256 44.9713 47.9625 44.8529 48.3813 44.6891L49.2279 46.8739C47.7896 47.6022 46.3193 47.9664 44.8172 47.9664C43.3151 47.9664 42.3001 47.6477 41.7721 47.0105C41.244 46.3641 40.98 45.4265 40.98 44.1975V36.3319H39.7237L39.4097 34.625C39.7101 34.2699 40.3246 33.9149 41.2532 33.5599C41.4898 32.0213 42.0224 30.9881 42.8508 30.4601ZM56.9296 48.1849C54.6901 48.1849 53.006 47.5886 51.8771 46.396C50.7483 45.2034 50.1838 43.4692 50.1838 41.1933C50.1838 39.8186 50.3796 38.6351 50.771 37.6428C51.1625 36.6414 51.695 35.8676 52.3687 35.3214C53.6705 34.2836 55.1908 33.7647 56.9296 33.7647C58.0858 33.7647 59.0599 33.9559 59.8519 34.3382C60.653 34.7115 61.2584 35.3442 61.6681 36.2363C62.0868 37.1194 62.2962 38.3256 62.2962 39.855C62.2962 41.2024 61.6317 41.876 60.3025 41.876H54.2395C54.3123 43.0504 54.6127 43.8788 55.1408 44.3613C55.6779 44.8438 56.5245 45.0851 57.6807 45.0851C58.3088 45.0851 58.9097 45.0122 59.4832 44.8666C60.0658 44.7118 60.4891 44.5616 60.7532 44.4159L61.1492 44.1975L61.9821 46.4233C61.882 46.5416 61.7227 46.7055 61.5042 46.9149C61.3585 47.0515 61.0627 47.2199 60.6166 47.4202C60.1705 47.6204 59.6243 47.798 58.9779 47.9527C58.3407 48.1075 57.6579 48.1849 56.9296 48.1849ZM54.2668 39.5546L58.6912 39.3771C58.7276 39.1495 58.7458 38.8354 58.7458 38.4349C58.7458 38.0616 58.5956 37.6656 58.2952 37.2468C57.9947 36.8281 57.4758 36.6187 56.7384 36.6187C56.0011 36.6187 55.4366 36.8417 55.0452 37.2878C54.6537 37.7339 54.3943 38.4895 54.2668 39.5546ZM71.1586 30.9926L71.4317 28.6712H77.9863L78.2595 30.9926C77.959 31.3477 77.4492 31.6617 76.73 31.9349V44.7164C77.4492 45.0077 77.959 45.3172 78.2595 45.6449L77.9863 47.9664H71.4317L71.1586 45.6449C71.4044 45.3263 71.9188 45.0168 72.7017 44.7164V31.9349C71.9279 31.6617 71.4135 31.3477 71.1586 30.9926ZM82.9433 30.4601H84.9779V33.9832H88.979V36.3319H84.9779V43.4054C84.9779 44.0154 85.0644 44.4478 85.2374 44.7027C85.3648 44.903 85.6015 45.0304 85.9475 45.0851C86.3025 45.1306 86.7076 45.1169 87.1628 45.0441C87.618 44.9713 88.055 44.8529 88.4737 44.6891L89.3204 46.8739C87.882 47.6022 86.4118 47.9664 84.9097 47.9664C83.4076 47.9664 82.3925 47.6477 81.8645 47.0105C81.3365 46.3641 81.0725 45.4265 81.0725 44.1975V36.3319H79.8162L79.5021 34.625C79.8025 34.2699 80.417 33.9149 81.3456 33.5599C81.5823 32.0213 82.1148 30.9881 82.9433 30.4601ZM0.887605 52.9926L1.16071 50.6712H13.9149V55.5325L11.8529 55.792C11.416 55.4188 11.07 54.7269 10.8151 53.7164H6.45903V58.8099H10.3372C10.5739 58.2454 10.806 57.854 11.0336 57.6355L12.7952 57.8267V62.8109L11.0336 63.0294C10.806 62.8564 10.5739 62.465 10.3372 61.855H6.45903V66.4979C7.70623 66.7801 8.60749 67.1624 9.16282 67.6449L8.88971 69.9664H1.16071L0.887605 67.6449C1.1334 67.3263 1.64776 67.0168 2.43067 66.7164V53.9349C1.65686 53.6617 1.14251 53.3477 0.887605 52.9926ZM27.666 62.6334C27.666 64.4541 27.3564 65.9198 26.7374 67.0304C26.1183 68.132 25.2763 68.9331 24.2111 69.4338C23.1551 69.9254 21.9625 70.1712 20.6334 70.1712C18.5578 70.1712 16.9601 69.6204 15.8403 68.5189C14.7297 67.4082 14.1744 65.5466 14.1744 62.9338C14.1744 60.5851 14.7889 58.8053 16.0179 57.5945C17.256 56.3746 18.9447 55.7647 21.084 55.7647C23.2689 55.7647 24.9121 56.3018 26.0137 57.376C27.1152 58.4503 27.666 60.2027 27.666 62.6334ZM18.2437 62.8655C18.2437 65.8424 19.1404 67.3309 20.9338 67.3309C21.8442 67.3309 22.5179 66.994 22.9548 66.3204C23.3918 65.6376 23.6103 64.5224 23.6103 62.9748C23.6103 60.0707 22.6954 58.6187 20.8655 58.6187C19.9734 58.6187 19.3134 58.9419 18.8855 59.5882C18.4576 60.2255 18.2437 61.3179 18.2437 62.8655ZM37.4569 59.4244C36.055 59.4244 35.0763 59.6929 34.521 60.23V66.6344C36.0504 66.9258 37.0882 67.3172 37.6345 67.8088L37.3477 69.9664H29.3456L29.0725 67.8088C29.3274 67.4538 29.8417 67.1397 30.6155 66.8666V59.083C29.951 58.8645 29.4366 58.5504 29.0725 58.1407L29.3456 55.9832C30.347 55.7556 31.271 55.6418 32.1176 55.6418C32.5273 55.6418 32.9006 55.6509 33.2374 55.6691C33.5833 55.6782 33.8929 55.6919 34.166 55.7101V57.4716C34.5938 56.9618 35.1446 56.5431 35.8183 56.2153C36.3827 55.9513 36.9471 55.7966 37.5116 55.751C38.076 55.7055 38.4993 55.7465 38.7815 55.8739L38.6996 59.5063C38.3354 59.4517 37.9212 59.4244 37.4569 59.4244ZM60.2479 59.2059L56.7521 70.1302H53.1197L51.6859 65.7195C51.4037 64.8183 51.1716 63.6985 50.9895 62.3603L50.9076 61.6912H50.5116C50.4205 62.4195 50.3022 63.1159 50.1565 63.7804C50.02 64.445 49.8606 65.0823 49.6786 65.6922L48.3676 70.1302H44.3939L40.8708 59.1376C40.0697 58.8645 39.5189 58.5322 39.2185 58.1407L39.4916 55.9832H46.0462L46.3193 58.1407C45.9825 58.5322 45.4135 58.8645 44.6124 59.1376L46.2374 66.2794H46.6334C46.7335 65.7787 46.8428 65.278 46.9611 64.7773C47.0795 64.2675 47.2115 63.7486 47.3571 63.2206L49.2553 56.0378H52.396L54.2668 63.1659L54.9632 66.2794H55.3592C56.042 63.1204 56.5063 61.0038 56.7521 59.9296L56.916 59.1376C56.0875 58.8554 55.5322 58.5231 55.25 58.1407L55.5231 55.9832H61.7363L62.0095 58.1407C61.6999 58.5595 61.1127 58.9145 60.2479 59.2059ZM63.2521 58.0588C63.2521 57.9131 63.2521 57.7675 63.2521 57.6218C63.2612 57.4671 63.2703 57.3123 63.2794 57.1575C65.0182 56.229 66.8845 55.7647 68.8782 55.7647C70.8718 55.7647 72.3011 56.1425 73.166 56.8981C74.0308 57.6537 74.4632 58.9054 74.4632 60.6533V66.6071C75.1096 66.7437 75.6239 66.903 76.0063 67.0851V69.5157C75.0777 69.9618 73.7167 70.1849 71.9233 70.1849C71.7321 69.6842 71.5728 69.097 71.4454 68.4233C70.6443 69.5977 69.1922 70.1849 67.0893 70.1849C66.2609 70.1849 65.5007 70.021 64.8088 69.6933C64.126 69.3655 63.5798 68.9012 63.1702 68.3004C62.7605 67.6905 62.5557 66.9667 62.5557 66.1292C62.5557 64.882 62.9699 63.9033 63.7983 63.1933C64.6268 62.4741 65.8603 62.1145 67.4989 62.1145H70.5578V60.7626C70.5578 59.306 69.784 58.5777 68.2363 58.5777C67.6355 58.5777 67.1576 58.6369 66.8025 58.7552C66.757 59.5473 66.6478 60.1526 66.4748 60.5714H63.73C63.4114 59.9068 63.2521 59.0693 63.2521 58.0588ZM68.291 67.3309C69.2468 67.3309 70.0025 67.0532 70.5578 66.4979V64.2038H68.5914C67.2532 64.2038 66.584 64.7181 66.584 65.7468C66.584 66.2111 66.7251 66.5935 67.0074 66.8939C67.2987 67.1852 67.7265 67.3309 68.291 67.3309ZM85.3876 59.4244C83.9856 59.4244 83.007 59.6929 82.4517 60.23V66.6344C83.9811 66.9258 85.0189 67.3172 85.5651 67.8088L85.2784 69.9664H77.2763L77.0032 67.8088C77.2581 67.4538 77.7724 67.1397 78.5462 66.8666V59.083C77.8817 58.8645 77.3673 58.5504 77.0032 58.1407L77.2763 55.9832C78.2777 55.7556 79.2017 55.6418 80.0483 55.6418C80.458 55.6418 80.8312 55.6509 81.1681 55.6691C81.514 55.6782 81.8235 55.6919 82.0966 55.7101V57.4716C82.5245 56.9618 83.0753 56.5431 83.7489 56.2153C84.3134 55.9513 84.8778 55.7966 85.4422 55.751C86.0067 55.7055 86.43 55.7465 86.7122 55.8739L86.6303 59.5063C86.2661 59.4517 85.8519 59.4244 85.3876 59.4244ZM94.8372 52.2689L95.1103 50.1113C96.1754 49.8655 97.195 49.7426 98.1691 49.7426C99.1341 49.7426 99.9625 49.7699 100.654 49.8246V66.6071C101.228 66.7073 101.742 66.8666 102.197 67.0851V69.2973C101.069 69.889 99.6485 70.1849 97.937 70.1849C97.7549 70.0938 97.5728 69.93 97.3908 69.6933C97.2178 69.4475 97.1222 69.2108 97.104 68.9832C96.6943 69.32 96.1618 69.6068 95.5063 69.8435C94.8508 70.0711 94.209 70.1849 93.5809 70.1849C91.569 70.1849 90.1078 69.6432 89.1975 68.5599C88.2962 67.4674 87.8456 65.6786 87.8456 63.1933C87.8456 60.3802 88.5375 58.4047 89.9212 57.2668C91.1411 56.2654 92.6296 55.7647 94.3866 55.7647C95.1513 55.7647 95.9342 55.8557 96.7353 56.0378V53.2657C95.8887 53.0381 95.256 52.7059 94.8372 52.2689ZM94.1681 67.3309C95.2423 67.3309 96.098 67.0168 96.7353 66.3886V58.8918C95.9524 58.7097 95.1422 58.6187 94.3046 58.6187C93.4489 58.6187 92.8298 58.9919 92.4475 59.7384C92.0651 60.4849 91.8739 61.6138 91.8739 63.125C91.8739 64.6271 92.0606 65.7059 92.4338 66.3613C92.8071 67.0077 93.3852 67.3309 94.1681 67.3309Z" fill="#FFFCF5"/>
</svg>
